<?xml version="1.0" encoding="UTF-8"?>
<svg width="256" height="256" viewBox="0 0 256 256" fill="none" xmlns="http://www.w3.org/2000/svg">
  <defs>
    <linearGradient id="g" x1="0" y1="0" x2="1" y2="1">
      <stop offset="0%" stop-color="#06B6D4"/>
      <stop offset="50%" stop-color="#3178C6"/>
      <stop offset="100%" stop-color="#FF3E00"/>
    </linearGradient>
    <clipPath id="clip">
      <circle cx="128" cy="96" r="64"/>
    </clipPath>
  </defs>

  <rect width="256" height="256" rx="28" fill="#0b1220"/>

  <!-- Top circle (avatar) -->
  <g clip-path="url(#clip)">
    <rect x="64" y="32" width="128" height="128" rx="64" fill="url(#g)"/>
    <circle cx="128" cy="88" r="28" fill="rgba(255,255,255,0.9)"/>
  </g>

  <!-- Base (shoulders) -->
  <path d="M56 196c0-26.5 32.2-44 72-44s72 17.5 72 44v20a12 12 0 0 1-12 12H68a12 12 0 0 1-12-12v-20z" fill="url(#g)" opacity="0.85"/>

  <!-- Initial P -->
  <path d="M104 156v-64h36c18 0 28 10 28 24s-10 24-28 24h-20v16h-16zm16-32h20c8 0 12-4 12-8s-4-8-12-8h-20v16z" fill="#ffffff" opacity="0.9"/>

  <title>Avatar placeholder for Pysen00 — replace this file with your own image</title>
</svg>

